<svg xmlns="http://www.w3.org/2000/svg" xmlns:xlink="http://www.w3.org/1999/xlink" width="500" zoomAndPan="magnify" viewBox="0 0 375 374.999991" height="500" preserveAspectRatio="xMidYMid meet" version="1.0"><defs><clipPath id="44b98a942c"><path d="M 18.75 95.453125 L 248 95.453125 L 248 279.203125 L 18.75 279.203125 Z M 18.75 95.453125 " clip-rule="nonzero"/></clipPath><clipPath id="d9eebc3596"><path d="M 204 176 L 356.25 176 L 356.25 256 L 204 256 Z M 204 176 " clip-rule="nonzero"/></clipPath></defs><g clip-path="url(#44b98a942c)"><path fill="#004aad" d="M 245.191406 99.710938 L 127.847656 254.636719 L 205.007812 254.636719 C 205.007812 254.636719 190.8125 279.378906 177.96875 279.378906 L 18.75 279.378906 L 147.449219 110.390625 C 147.449219 110.390625 156.304688 96.195312 178.136719 96.195312 C 190.40625 96.195312 247.015625 95.621094 247.015625 95.621094 Z M 245.191406 99.710938 " fill-opacity="1" fill-rule="nonzero"/></g><g clip-path="url(#d9eebc3596)"><path fill="#ff914d" d="M 356.25 176.734375 L 286.289062 176.734375 C 283.449219 176.652344 280.632812 176.875 277.835938 177.390625 C 275.042969 177.910156 272.335938 178.71875 269.710938 179.8125 C 267.089844 180.910156 264.613281 182.269531 262.28125 183.890625 C 259.945312 185.515625 257.8125 187.363281 255.871094 189.441406 C 247.558594 197.488281 204.636719 255.144531 204.636719 255.144531 L 285.34375 255.144531 C 287.648438 254.851562 289.902344 254.332031 292.101562 253.589844 C 294.304688 252.847656 296.414062 251.898438 298.425781 250.738281 C 300.4375 249.578125 302.320312 248.230469 304.0625 246.695312 C 305.808594 245.164062 307.386719 243.472656 308.796875 241.625 C 318.058594 228.953125 356.25 176.734375 356.25 176.734375 Z M 356.25 176.734375 " fill-opacity="1" fill-rule="nonzero"/></g></svg>